<?xml version="1.0" encoding="iso-8859-1"?>
<!-- Generator: Adobe Illustrator 19.0.0, SVG Export Plug-In . SVG Version: 6.00 Build 0)  -->
<svg xmlns="http://www.w3.org/2000/svg" xmlns:xlink="http://www.w3.org/1999/xlink" version="1.1" id="Capa_1" x="0px" y="0px" viewBox="0 0 512 512" style="enable-background:new 0 0 512 512;" xml:space="preserve" width="512px" height="512px">
<g transform="translate(1 1)">
	<g>
		<g>
			<path d="M148.333-1H63C27.645-1-1,27.645-1,63v85.333c0,35.355,28.645,64,64,64h85.333c35.355,0,64-28.645,64-64V63     C212.333,27.645,183.689-1,148.333-1z M169.667,148.333c0,11.791-9.542,21.333-21.333,21.333H63     c-11.791,0-21.333-9.542-21.333-21.333V63c0-11.791,9.542-21.333,21.333-21.333h85.333c11.791,0,21.333,9.542,21.333,21.333     V148.333z" fill="#006DF0"/>
			<path d="M447-1h-85.333c-35.355,0-64,28.645-64,64v85.333c0,35.355,28.645,64,64,64H447c35.355,0,64-28.645,64-64V63     C511,27.645,482.355-1,447-1z M468.333,148.333c0,11.791-9.542,21.333-21.333,21.333h-85.333     c-11.791,0-21.333-9.542-21.333-21.333V63c0-11.791,9.542-21.333,21.333-21.333H447c11.791,0,21.333,9.542,21.333,21.333V148.333     z" fill="#006DF0"/>
			<path d="M148.333,297.667H63c-35.355,0-64,28.645-64,64V447c0,35.355,28.645,64,64,64h85.333c35.355,0,64-28.645,64-64v-85.333     C212.333,326.311,183.689,297.667,148.333,297.667z M169.667,447c0,11.791-9.542,21.333-21.333,21.333H63     c-11.791,0-21.333-9.542-21.333-21.333v-85.333c0-11.791,9.542-21.333,21.333-21.333h85.333c11.791,0,21.333,9.542,21.333,21.333     V447z" fill="#006DF0"/>
			<path d="M489.667,383h-64v-64c0-11.782-9.551-21.333-21.333-21.333C392.551,297.667,383,307.218,383,319v64h-64     c-11.782,0-21.333,9.551-21.333,21.333c0,11.782,9.551,21.333,21.333,21.333h64v64c0,11.782,9.551,21.333,21.333,21.333     c11.782,0,21.333-9.551,21.333-21.333v-64h64c11.782,0,21.333-9.551,21.333-21.333C511,392.551,501.449,383,489.667,383z" fill="#006DF0"/>
		</g>
	</g>
</g>
<g>
</g>
<g>
</g>
<g>
</g>
<g>
</g>
<g>
</g>
<g>
</g>
<g>
</g>
<g>
</g>
<g>
</g>
<g>
</g>
<g>
</g>
<g>
</g>
<g>
</g>
<g>
</g>
<g>
</g>
</svg>
